<svg id="Layer_1" data-name="Layer 1" xmlns="http://www.w3.org/2000/svg" width="232" height="136.5" viewBox="0 0 232 136.5"><defs><style>.cls-1,.cls-3,.cls-5{fill:none;}.cls-1{stroke:#d8d8d8;}.cls-1,.cls-2,.cls-3,.cls-4,.cls-5{stroke-linecap:round;stroke-linejoin:round;}.cls-2,.cls-4{fill:#fff;}.cls-2,.cls-3{stroke:#f48024;}.cls-4,.cls-5{stroke:#7bc9f0;}</style></defs><title>Untitled-2</title><polygon class="cls-1" points="176.45 57.08 187.68 57.08 193.3 47.24 187.68 37.4 176.45 57.08 176.45 57.08"/><polygon class="cls-1" points="159.59 66.93 170.83 86.61 176.45 76.77 170.83 66.93 159.59 66.93 159.59 66.93"/><polygon class="cls-1" points="187.68 57.09 176.45 57.09 170.83 66.93 193.3 66.93 187.68 57.09"/><polygon class="cls-1" points="25.32 36.46 36.5 56.05 42.09 46.26 36.5 36.46 36.5 36.46 25.32 36.46"/><polygon class="cls-1" points="36.5 75.63 25.32 56.05 19.73 65.84 25.32 75.63 25.32 75.63 36.5 75.63"/><polygon class="cls-1" points="42.09 46.26 36.5 56.05 42.09 65.84 53.27 46.26 42.09 46.26"/><polygon class="cls-1" points="53.27 85.42 58.86 75.63 53.27 65.84 42.09 85.42 53.27 85.42"/><polygon class="cls-1" points="58.86 56.05 70.04 75.63 75.63 65.84 70.04 56.05 58.86 56.05 58.86 56.05"/><polygon class="cls-1" points="56.06 41.36 58.86 36.46 36.5 36.46 42.09 46.26 53.27 46.26 56.06 41.36"/><circle class="cls-2" cx="116" cy="77.47" r="45.96"/><path class="cls-3" d="M90.92,94.53a6.55,6.55,0,0,0-2.16-.36"/><path class="cls-3" d="M83.91,90.74a4.36,4.36,0,0,0-1.18,1.41"/><path class="cls-3" d="M99.84,92.3a8.17,8.17,0,0,0-6.25,4,6.55,6.55,0,0,0-2.67-1.78c0-.12,0-.25,0-.37a4.36,4.36,0,0,0-7.06-3.4,8.16,8.16,0,0,0-7.64-5.28"/><path class="cls-3" d="M140.46,85A7.17,7.17,0,0,1,142.62,86"/><path class="cls-3" d="M149.12,86.09a4.78,4.78,0,0,1,.15,2"/><path class="cls-3" d="M149.13,86.13a4.77,4.77,0,0,0-8.45-1.51c-.08.11-.15.23-.22.34a7.14,7.14,0,0,0-7,1.72"/><path class="cls-3" d="M152,78.91a5.6,5.6,0,0,0-1.85-.31"/><path class="cls-3" d="M146,75.67a3.73,3.73,0,0,0-1,1.21"/><path class="cls-3" d="M155.77,84.16A5.56,5.56,0,0,0,152,78.91c0-.1,0-.21,0-.32a3.72,3.72,0,0,0-6-2.9A7,7,0,0,0,135,72.84"/><path class="cls-4" d="M108.46,86.73a19.2,19.2,0,0,0-2.82,4.11c-2.62,5.07-.21,11.52-.21,11.52s6.65-1.78,9.26-6.85a19.2,19.2,0,0,0,1.71-4.68"/><path class="cls-4" d="M107.79,70.65l4.39-9.81c-5.56-.18-10.45,2-12.91,6.09l-4.52,7.48c-.78,1.28,1.3,3,2.67,2.17a27.46,27.46,0,0,1,10.4-4A2.4,2.4,0,0,1,107.79,70.65Z"/><path class="cls-4" d="M137.87,86.83c1.89-4.36.85-9.61-2.52-14l-5.45,9.27a2.4,2.4,0,0,1-1.63,1.11,27.46,27.46,0,0,1,2.81,10.77c.14,1.59,2.72,2.3,3.32.92Z"/><path class="cls-4" d="M124.13,66.11h0a2.48,2.48,0,0,0-3.34,1.07l-8,15.42a2.48,2.48,0,0,0,1.07,3.34h0a2.48,2.48,0,0,0,3.34-1.07l8-15.42A2.48,2.48,0,0,0,124.13,66.11Z"/><path class="cls-4" d="M144.28,55.74h0A39.63,39.63,0,0,0,144,27.57a39.63,39.63,0,0,0-23.12,16.11h0A51.91,51.91,0,0,0,116,52.23l-8.25,18.43c-1,2,2,5.68,6.75,8.64l6.25-12.11a2.48,2.48,0,0,1,4.41,2.27l-6.25,12.11c5.14,2.12,9.93,2.48,11,.49l10.23-17.41A51.91,51.91,0,0,0,144.28,55.74Z"/><path class="cls-4" d="M111.66,62c-1,2,2.25,5.81,7.21,8.89"/><path class="cls-4" d="M123.28,73.17c5.38,2.26,10.39,2.72,11.42.72"/><path class="cls-4" d="M138.25,38.72c3.14,1.62,6.31,2.21,8.45,1.76A37.06,37.06,0,0,0,144,27.57a37.06,37.06,0,0,0-12.08,5.29C132.79,34.86,135.11,37.1,138.25,38.72Z"/><path class="cls-5" d="M103.64,84.38h0c-4,6-5.78,13.28-4.54,18.82l1.79,8,7.52-3.16c5.24-2.2,10.16-7.87,12.7-14.61h0"/><circle class="cls-4" cx="132.08" cy="50.69" r="4.94" transform="translate(-9.16 42.6) rotate(-17.72)"/><path class="cls-4" d="M130.91,51.06a1.23,1.23,0,0,1,.8-1.55"/></svg>